<svg width="23" height="23" viewBox="0 0 23 23" fill="none" xmlns="http://www.w3.org/2000/svg">
<path d="M0 11.25C0 5.0368 5.0368 0 11.25 0V0C17.4632 0 22.5 5.0368 22.5 11.25V11.25C22.5 17.4632 17.4632 22.5 11.25 22.5V22.5C5.0368 22.5 0 17.4632 0 11.25V11.25Z" fill="#3299FE"/>
<circle cx="11.25" cy="8.75" r="5" fill="white"/>
<path fill-rule="evenodd" clip-rule="evenodd" d="M19.0507 19.0987C19.1082 19.1954 19.0905 19.3186 19.009 19.3963C16.9905 21.3194 14.2582 22.5 11.2501 22.5C8.24204 22.5 5.50974 21.3194 3.49123 19.3964C3.40975 19.3187 3.39202 19.1955 3.44954 19.0988C4.89616 16.6661 7.84616 15 11.2502 15C14.6541 15 17.6041 16.666 19.0507 19.0987Z" fill="white"/>
</svg>
