<svg width="19" height="25" viewBox="0 0 19 25" fill="none" xmlns="http://www.w3.org/2000/svg">
<path d="M10.647 1H5.72222C3.49615 1 2.38311 1 1.69155 1.73223C1 2.46447 1 3.64298 1 6V18.5C1 20.857 1 22.0355 1.69155 22.7678C2.38311 23.5 3.49615 23.5 5.72222 23.5H12.8056C15.0316 23.5 16.1447 23.5 16.8362 22.7678C17.5278 22.0355 17.5278 20.857 17.5278 18.5V8.28553C17.5278 7.7746 17.5278 7.51913 17.4379 7.28941C17.348 7.0597 17.1774 6.87906 16.8362 6.51777L12.3166 1.73223C11.9753 1.37095 11.8047 1.1903 11.5878 1.09515C11.3708 1 11.1295 1 10.647 1Z" stroke="#CCD2E3" stroke-width="2"/>
<path d="M6 13L13.0833 13" stroke="#CCD2E3" stroke-width="2" stroke-linecap="round"/>
<path d="M6 18L10.7222 18" stroke="#CCD2E3" stroke-width="2" stroke-linecap="round"/>
<path d="M11 1V6C11 7.17851 11 7.76777 11.3458 8.13388C11.6916 8.5 12.2481 8.5 13.3611 8.5H18.0833" stroke="#CCD2E3" stroke-width="2"/>
</svg>
